<svg width="96.00000000000001" height="96.00000000000001" xmlns="http://www.w3.org/2000/svg">
 <title/>

 <g>
  <title>background</title>
  <rect fill="none" id="canvas_background" height="402" width="582" y="-1" x="-1"/>
 </g>
 <g>
  <title>Layer 1</title>
  <path fill="#7f00ff" id="svg_2" d="m24.8452,25.3957a6.0129,6.0129 0 0 0 -8.4487,0.7617l-14.9991,17.9989a5.9844,5.9844 0 0 0 0,7.687l14.9991,17.9989a5.9983,5.9983 0 1 0 9.21,-7.687l-11.7997,-14.1552l11.8,-14.1554a6,6 0 0 0 -0.7616,-8.4489z"/>
  <path fill="#7f00ff" id="svg_3" d="m55.1714,12.1192a6.0558,6.0558 0 0 0 -7.0542,4.7108l-11.9993,59.9962a5.9847,5.9847 0 0 0 4.7107,7.0538a5.7059,5.7059 0 0 0 1.1835,0.1172a5.9949,5.9949 0 0 0 5.8707,-4.8272l11.9993,-59.9965a5.9848,5.9848 0 0 0 -4.7107,-7.0543z"/>
  <path fill="#7f00ff" id="svg_4" d="m94.6026,44.1563l-14.9991,-17.9989a5.9983,5.9983 0 1 0 -9.21,7.687l11.7997,14.1556l-11.8,14.1554a5.9983,5.9983 0 1 0 9.21,7.687l14.9994,-17.9991a5.9844,5.9844 0 0 0 0,-7.687z"/>
 </g>
</svg>